<?xml version="1.0" encoding="UTF-8" standalone="no"?>
<!-- Created with Vectornator (http://vectornator.io/) -->

<svg
   xmlns:vectornator="http://vectornator.io"
   xmlns:dc="http://purl.org/dc/elements/1.1/"
   xmlns:cc="http://creativecommons.org/ns#"
   xmlns:rdf="http://www.w3.org/1999/02/22-rdf-syntax-ns#"
   xmlns:svg="http://www.w3.org/2000/svg"
   xmlns="http://www.w3.org/2000/svg"
   xmlns:sodipodi="http://sodipodi.sourceforge.net/DTD/sodipodi-0.dtd"
   xmlns:inkscape="http://www.inkscape.org/namespaces/inkscape"
   height="100%"
   stroke-miterlimit="10"
   style="fill-rule:nonzero;clip-rule:evenodd;stroke-linecap:round;stroke-linejoin:round;"
   version="1.1"
   viewBox="0 0 725 735"
   width="100%"
   xml:space="preserve"
   id="svg3961"
   sodipodi:docname="Coordinate system v2.svg"
   inkscape:version="0.92.3 (2405546, 2018-03-11)"><metadata
   id="metadata3965"><rdf:RDF><cc:Work
       rdf:about=""><dc:format>image/svg+xml</dc:format><dc:type
         rdf:resource="http://purl.org/dc/dcmitype/StillImage" /></cc:Work></rdf:RDF></metadata><sodipodi:namedview
   pagecolor="#ffffff"
   bordercolor="#666666"
   borderopacity="1"
   objecttolerance="10"
   gridtolerance="10"
   guidetolerance="10"
   inkscape:pageopacity="0"
   inkscape:pageshadow="2"
   inkscape:window-width="3840"
   inkscape:window-height="2063"
   id="namedview3963"
   showgrid="false"
   inkscape:zoom="2.5442177"
   inkscape:cx="362.5"
   inkscape:cy="367.5"
   inkscape:window-x="0"
   inkscape:window-y="27"
   inkscape:window-maximized="1"
   inkscape:current-layer="Layer-1" />
<defs
   id="defs3896">
<linearGradient
   gradientTransform="matrix(1.14149 0.117289 0.117289 1.14149 -96.2337 -201.498)"
   gradientUnits="userSpaceOnUse"
   id="LinearGradient"
   x1="189.9"
   x2="535.1"
   y1="367.5"
   y2="367.5">
<stop
   offset="0"
   stop-color="#819dff"
   id="stop3867" />
<stop
   offset="1"
   stop-color="#002dd0"
   id="stop3869" />
</linearGradient>
<clipPath
   id="TextBounds">
<rect
   height="93"
   transform="matrix(1 0 0 1 375.404 653.975)"
   width="130.025"
   x="0"
   y="0"
   id="rect3872" />
</clipPath>
<clipPath
   id="TextBounds_2">
<rect
   height="93"
   transform="matrix(1 0 0 1 202.452 655.219)"
   width="130.025"
   x="0"
   y="0"
   id="rect3875" />
</clipPath>
<clipPath
   id="TextBounds_3">
<rect
   height="93"
   transform="matrix(1 0 0 1 340.565 426.275)"
   width="130.025"
   x="0"
   y="0"
   id="rect3878" />
</clipPath>
<clipPath
   id="TextBounds_4">
<rect
   height="93"
   transform="matrix(1 0 0 1 525.959 393.924)"
   width="130.025"
   x="0"
   y="0"
   id="rect3881" />
</clipPath>
<clipPath
   id="TextBounds_5">
<rect
   height="93"
   transform="matrix(1 0 0 1 42.5641 67.3056)"
   width="130.025"
   x="0"
   y="0"
   id="rect3884" />
</clipPath>
<clipPath
   id="TextBounds_6">
<rect
   height="93"
   transform="matrix(1 0 0 1 585.062 230.414)"
   width="130.025"
   x="0"
   y="0"
   id="rect3887" />
</clipPath>
<clipPath
   id="TextBounds_7">
<rect
   height="93"
   transform="matrix(1 0 0 1 345.297 31.8442)"
   width="130.025"
   x="0"
   y="0"
   id="rect3890" />
</clipPath>
<clipPath
   id="TextBounds_8">
<rect
   height="62.236"
   transform="matrix(1 0 0 1 -8.80546 229.437)"
   width="130.025"
   x="0"
   y="0"
   id="rect3893" />
</clipPath>
</defs>
<g
   id="Layer-1"
   vectornator:layerName="Layer 1">
<path
   d="M360.659 10.515L345.296 112.935L358.098 112.935L358.098 408.095L345.296 408.095L360.659 510.515L376.021 408.095L363.219 408.095L363.219 112.935L376.021 112.935L360.659 10.515Z"
   id="path3898"
   stroke="none"
   fill-rule="nonzero"
   fill="#3e68ff"
   opacity="1" />
<path
   d="M610.659 260.515L508.239 245.152L508.239 257.955L213.078 257.955L213.078 245.152L110.659 260.515L213.078 275.878L213.078 263.076L508.239 263.076L508.239 275.878L610.659 260.515Z"
   id="path3900"
   stroke="none"
   fill-rule="nonzero"
   fill="#3e68ff"
   opacity="1" />
<path
   d="M577.923 477.78L499.778 377.908L490.725 386.961L234.213 130.448L243.266 121.396L143.394 43.2501L221.539 143.122L230.592 134.069L487.104 390.582L478.051 399.634L577.923 477.78Z"
   id="path3902"
   stroke="none"
   fill-rule="nonzero"
   fill="url(#LinearGradient)"
   opacity="1" />
<path
   d="M599.899 497.241L133.628 30.9697L139.644 24.9541L102.446 2.182L125.206 39.3915L131.222 33.376L597.493 499.647L599.899 497.241Z"
   id="path3904"
   stroke="none"
   fill-rule="nonzero"
   fill="#e94420"
   opacity="0.638285" />
<path
   d="M360.44 540.092C344.443 540.158 328.638 540.571 313.221 541.342C298.099 542.099 283.386 543.193 269.252 544.592C255.309 545.973 241.978 547.639 229.44 549.592C216.983 551.533 205.362 553.753 194.721 556.186C184.062 558.623 174.426 561.277 165.971 564.124C157.415 567.004 150.097 570.065 144.096 573.28C137.912 576.592 133.134 580.082 129.846 583.717C126.322 587.613 124.485 591.708 124.502 595.967C124.52 600.226 126.384 604.351 129.94 608.217C133.258 611.825 138.073 615.237 144.284 618.499C150.311 621.664 157.673 624.689 166.252 627.499C174.73 630.275 184.355 632.836 195.034 635.186C203.858 637.128 213.51 638.865 223.596 640.467L223.221 653.686L326.034 641.124L224.065 622.967L223.721 635.405C213.983 633.853 204.654 632.187 196.127 630.311C185.604 627.996 176.094 625.47 167.784 622.749C159.452 620.02 152.356 617.117 146.596 614.092C140.855 611.077 136.51 607.946 133.627 604.811C130.86 601.802 129.514 598.868 129.502 595.967C129.49 593.066 130.791 590.093 133.534 587.061C136.391 583.903 140.723 580.748 146.44 577.686C152.174 574.614 159.256 571.671 167.565 568.874C175.853 566.084 185.342 563.463 195.846 561.061C206.368 558.655 217.876 556.484 230.221 554.561C242.665 552.623 255.899 550.933 269.752 549.561C283.804 548.169 298.429 547.095 313.471 546.342C328.812 545.575 344.52 545.158 360.44 545.092C376.36 545.027 392.093 545.326 407.44 545.967C422.487 546.596 437.127 547.535 451.19 548.811C465.053 550.069 478.293 551.631 490.752 553.467C503.112 555.289 514.648 557.398 525.19 559.717C535.713 562.033 545.223 564.558 553.534 567.28C561.865 570.008 568.961 572.911 574.721 575.936C580.462 578.951 584.807 582.051 587.69 585.186C590.457 588.195 591.803 591.16 591.815 594.061C591.827 596.962 590.526 599.935 587.784 602.967C584.926 606.126 580.594 609.249 574.877 612.311C569.143 615.383 562.061 618.358 553.752 621.155C545.464 623.945 535.975 626.565 525.471 628.967C516.32 631.06 506.296 632.926 495.752 634.655L495.44 622.967L393.502 641.124L496.284 653.686L495.909 639.717C506.806 637.944 517.145 636.003 526.596 633.842C537.255 631.405 546.891 628.751 555.346 625.905C563.902 623.024 571.22 619.932 577.221 616.717C583.405 613.405 588.183 609.946 591.471 606.311C594.995 602.416 596.832 598.289 596.815 594.03C596.797 589.771 594.933 585.677 591.377 581.811C588.059 578.203 583.244 574.76 577.034 571.499C571.006 568.333 563.644 565.34 555.065 562.53C546.587 559.753 536.962 557.161 526.284 554.811C515.623 552.466 503.975 550.368 491.502 548.53C478.949 546.68 465.581 545.108 451.627 543.842C437.482 542.559 422.786 541.6 407.659 540.967C392.235 540.323 376.436 540.027 360.44 540.092Z"
   id="path3906"
   stroke="none"
   fill-rule="nonzero"
   fill="#3e68ff"
   opacity="1" />
<g
   id="g3914"
   transform="translate(-7.0748663,1.1791444)"
   style="opacity:1;fill:#3e68ff;stroke:none">
<path
   clip-path="url(#TextBounds)"
   d="m 400.912,691.948 v -4.861 h 14.851 v 4.861 z"
   id="path3908"
   style="fill:#000000"
   inkscape:connector-curvature="0"
   transform="matrix(1.0367527,0,0,1.018978,-8.3818369,-14.165722)" />
<path
   clip-path="url(#TextBounds)"
   d="m 431.742,703.765 v -34.724 h -12.971 v -4.646 h 31.206 v 4.646 h -13.025 v 34.724 z"
   id="path3910"
   style="fill:#000000"
   inkscape:connector-curvature="0"
   transform="matrix(1.0367527,0,0,1.018978,-8.3818369,-14.165722)" />
<path
   clip-path="url(#TextBounds)"
   d="m 454.704,703.765 v -39.37 h 4.834 v 14.125 c 2.255,-2.613 5.102,-3.92 8.54,-3.92 2.112,0 3.947,0.416 5.505,1.248 1.558,0.833 2.672,1.983 3.344,3.451 0.671,1.468 1.007,3.599 1.007,6.392 v 18.074 H 473.1 v -18.074 c 0,-2.417 -0.524,-4.176 -1.571,-5.277 -1.048,-1.101 -2.529,-1.652 -4.445,-1.652 -1.432,0 -2.78,0.372 -4.042,1.115 -1.262,0.743 -2.162,1.75 -2.699,3.021 -0.537,1.271 -0.805,3.026 -0.805,5.264 v 15.603 z"
   id="path3912"
   style="fill:#000000"
   inkscape:connector-curvature="0"
   transform="matrix(1.0367527,0,0,1.018978,-8.3818369,-14.165722)" />
</g>
<g
   id="g3922"
   stroke="none"
   fill="#3e68ff"
   opacity="1">
<path
   clip-path="url(#TextBounds_2)"
   d="m 233.089,698.644 v -10.796 h -10.715 v -4.511 h 10.715 v -10.716 h 4.566 v 10.716 h 10.715 v 4.511 h -10.715 v 10.796 z"
   id="path3916"
   style="fill:#000000"
   inkscape:connector-curvature="0"
   transform="matrix(1.0367527,0,0,1.018978,-8.3818369,-14.165722)" />
<path
   clip-path="url(#TextBounds_2)"
   d="m 265.692,705.009 v -34.724 h -12.971 v -4.646 h 31.206 v 4.646 h -13.025 v 34.724 z"
   id="path3918"
   style="fill:#000000"
   inkscape:connector-curvature="0"
   transform="matrix(1.0367527,0,0,1.018978,-8.3818369,-14.165722)" />
<path
   clip-path="url(#TextBounds_2)"
   d="m 288.653,705.009 v -39.37 h 4.834 v 14.126 c 2.256,-2.614 5.103,-3.921 8.54,-3.921 2.113,0 3.948,0.416 5.506,1.249 1.557,0.832 2.672,1.982 3.343,3.451 0.672,1.468 1.007,3.598 1.007,6.391 v 18.074 h -4.834 v -18.074 c 0,-2.417 -0.523,-4.176 -1.571,-5.277 -1.047,-1.101 -2.529,-1.652 -4.444,-1.652 -1.433,0 -2.78,0.372 -4.042,1.115 -1.262,0.743 -2.162,1.75 -2.699,3.021 -0.537,1.271 -0.806,3.026 -0.806,5.264 v 15.603 z"
   id="path3920"
   style="fill:#000000"
   inkscape:connector-curvature="0"
   transform="matrix(1.0367527,0,0,1.018978,-8.3818369,-14.165722)" />
</g>
<g
   id="g3928"
   transform="translate(-0.39304813,16.508021)"
   style="opacity:1;fill:#3e68ff;stroke:none">
<path
   clip-path="url(#TextBounds_3)"
   d="m 380.36,459.071 h 13.481 v 4.968 H 380.36 Z"
   id="path3924"
   style="fill:#000000"
   inkscape:connector-curvature="0"
   transform="matrix(1.0367527,0,0,1.018978,-8.3818369,-14.165722)" />
<path
   clip-path="url(#TextBounds_3)"
   d="m 411.727,476.876 v -16.677 l -15.173,-22.693 h 6.338 l 7.761,11.87 c 1.432,2.22 2.766,4.44 4.001,6.66 1.182,-2.059 2.614,-4.377 4.297,-6.955 l 7.627,-11.575 h 6.07 l -15.711,22.693 v 16.677 z"
   id="path3926"
   style="fill:#000000"
   inkscape:connector-curvature="0"
   transform="matrix(1.0367527,0,0,1.018978,-8.3818369,-14.165722)" />
</g>
<g
   id="g3934"
   transform="translate(-31.050802,-15.328877)"
   style="opacity:1;fill:#3e68ff;stroke:none">
<path
   clip-path="url(#TextBounds_4)"
   d="m 566.762,431.898 v -4.861 h 14.851 v 4.861 z"
   id="path3930"
   style="fill:#000000"
   inkscape:connector-curvature="0"
   transform="matrix(1.0367527,0,0,1.018978,-8.3818369,-14.165722)" />
<path
   clip-path="url(#TextBounds_4)"
   d="m 584.433,443.714 v -4.834 l 20.168,-25.217 c 1.433,-1.79 2.793,-3.348 4.082,-4.673 h -21.968 v -4.646 h 28.199 v 4.646 l -22.102,27.312 -2.39,2.766 h 25.136 v 4.646 z"
   id="path3932"
   style="fill:#000000"
   inkscape:connector-curvature="0"
   transform="matrix(1.0367527,0,0,1.018978,-8.3818369,-14.165722)" />
</g>
<g
   id="g3940"
   transform="translate(20.438503,23.18984)"
   style="opacity:1;fill:#3e68ff;stroke:none">
<path
   clip-path="url(#TextBounds_5)"
   d="M 88.496,110.731 V 99.935 H 77.7806 V 95.4233 H 88.496 V 84.708 h 4.5654 V 95.4233 H 103.777 V 99.935 H 93.0614 v 10.796 z"
   id="path3936"
   style="fill:#000000"
   inkscape:connector-curvature="0"
   transform="matrix(1.0367527,0,0,1.018978,-8.3818369,-14.165722)" />
<path
   clip-path="url(#TextBounds_5)"
   d="m 107.939,117.096 v -4.834 l 20.169,-25.2176 c 1.432,-1.7904 2.793,-3.348 4.082,-4.6728 h -21.968 v -4.646 h 28.198 v 4.646 l -22.102,27.3124 -2.39,2.766 h 25.137 v 4.646 z"
   id="path3938"
   style="fill:#000000"
   inkscape:connector-curvature="0"
   transform="matrix(1.0367527,0,0,1.018978,-8.3818369,-14.165722)" />
</g>
<g
   id="g3946"
   transform="translate(-18.080214,8.6470588)"
   style="opacity:1;fill:#3e68ff;stroke:none">
<path
   clip-path="url(#TextBounds_6)"
   d="m 624.32,268.388 v -4.861 h 14.851 v 4.861 z"
   id="path3942"
   style="fill:#000000"
   inkscape:connector-curvature="0"
   transform="matrix(1.0367527,0,0,1.018978,-8.3818369,-14.165722)" />
<path
   clip-path="url(#TextBounds_6)"
   d="m 641.132,280.204 15.227,-20.517 -13.428,-18.853 h 6.204 l 7.143,10.098 c 1.486,2.095 2.542,3.706 3.169,4.834 0.877,-1.432 1.916,-2.927 3.115,-4.485 l 7.923,-10.447 h 5.666 l -13.83,18.558 14.904,20.812 h -6.445 l -9.91,-14.045 c -0.555,-0.806 -1.128,-1.683 -1.718,-2.632 -0.878,1.433 -1.504,2.417 -1.88,2.954 l -9.883,13.723 z"
   id="path3944"
   style="fill:#000000"
   inkscape:connector-curvature="0"
   transform="matrix(1.0367527,0,0,1.018978,-8.3818369,-14.165722)" />
</g>
<g
   id="g3952"
   transform="translate(-7.0748663,-4.7165775)"
   style="opacity:1;fill:#3e68ff;stroke:none">
<path
   clip-path="url(#TextBounds_7)"
   d="M 389.685,75.2695 V 64.4736 H 378.97 v -4.5117 h 10.715 V 49.2466 h 4.565 v 10.7153 h 10.716 v 4.5117 H 394.25 v 10.7959 z"
   id="path3948"
   style="fill:#000000"
   inkscape:connector-curvature="0"
   transform="matrix(1.0367527,0,0,1.018978,-8.3818369,-14.165722)" />
<path
   clip-path="url(#TextBounds_7)"
   d="M 423.362,81.6343 V 64.957 L 408.188,42.2641 h 6.338 l 7.762,11.8702 c 1.432,2.22 2.766,4.4401 4.001,6.6601 1.182,-2.0589 2.614,-4.3774 4.297,-6.9556 l 7.627,-11.5747 h 6.069 l -15.71,22.6929 v 16.6773 z"
   id="path3950"
   style="fill:#000000"
   inkscape:connector-curvature="0"
   transform="matrix(1.0367527,0,0,1.018978,-8.3818369,-14.165722)" />
</g>
<g
   id="g3958"
   transform="translate(16.114973,9.8262032)"
   style="opacity:1;fill:#3e68ff;stroke:none">
<path
   clip-path="url(#TextBounds_8)"
   d="M 35.5822,272.863 V 262.067 H 24.8668 v -4.512 H 35.5822 V 246.84 h 4.5654 v 10.715 h 10.7153 v 4.512 H 40.1476 v 10.796 z"
   id="path3954"
   style="fill:#000000"
   inkscape:connector-curvature="0"
   transform="matrix(1.0367527,0,0,1.018978,-8.3818369,-14.165722)" />
<path
   clip-path="url(#TextBounds_8)"
   d="M 54.1662,279.227 69.3932,258.71 55.9655,239.857 h 6.2036 l 7.1435,10.098 c 1.486,2.095 2.5424,3.706 3.169,4.834 0.8773,-1.432 1.9157,-2.927 3.1152,-4.485 l 7.9224,-10.447 h 5.6665 l -13.8306,18.557 14.9048,20.813 h -6.4453 l -9.9097,-14.045 c -0.555,-0.806 -1.1279,-1.683 -1.7187,-2.632 -0.8773,1.432 -1.5039,2.417 -1.8799,2.954 l -9.8828,13.723 z"
   id="path3956"
   style="fill:#000000"
   inkscape:connector-curvature="0"
   transform="matrix(1.0367527,0,0,1.018978,-8.3818369,-14.165722)" />
</g>
</g>
</svg>